<?xml version="1.0" encoding="utf-8"?>
<!-- Generator: Adobe Illustrator 21.0.0, SVG Export Plug-In . SVG Version: 6.00 Build 0)  -->
<svg version="1.1" id="Layer_1" xmlns="http://www.w3.org/2000/svg" xmlns:xlink="http://www.w3.org/1999/xlink" x="0px" y="0px"
	 width="3000px" height="2000px" viewBox="0 0 3000 2000" style="enable-background:new 0 0 3000 2000;" xml:space="preserve">
<style type="text/css">
	.st0{fill-rule:evenodd;clip-rule:evenodd;fill:#5D728A;}
	.st1{fill-rule:evenodd;clip-rule:evenodd;fill:#71859C;}
	.st2{fill-rule:evenodd;clip-rule:evenodd;fill:#384452;}
	.st3{fill-rule:evenodd;clip-rule:evenodd;fill:#61768F;}
	.st4{fill-rule:evenodd;clip-rule:evenodd;fill:#52667D;}
	.st5{fill-rule:evenodd;clip-rule:evenodd;fill:#5D7187;}
	.st6{fill-rule:evenodd;clip-rule:evenodd;fill:#647991;}
	.st7{fill-rule:evenodd;clip-rule:evenodd;fill:#829CBA;}
	.st8{fill-rule:evenodd;clip-rule:evenodd;fill:#FFFFFF;}
	.st9{fill-rule:evenodd;clip-rule:evenodd;fill:#E05B5C;}
	.st10{fill-rule:evenodd;clip-rule:evenodd;fill:#FFCC00;}
	.st11{fill-rule:evenodd;clip-rule:evenodd;fill:#33CC66;}
	.st12{fill-rule:evenodd;clip-rule:evenodd;fill:#667C96;}
	.st13{fill-rule:evenodd;clip-rule:evenodd;fill:#3E4B59;}
	.st14{fill-rule:evenodd;clip-rule:evenodd;fill:#E9A2CA;}
	.st15{fill-rule:evenodd;clip-rule:evenodd;fill:#CCCCCC;}
	.st16{fill-rule:evenodd;clip-rule:evenodd;fill:#B3B3B3;}
	.st17{fill-rule:evenodd;clip-rule:evenodd;fill:#C9709E;}
	.st18{fill-rule:evenodd;clip-rule:evenodd;fill:#3F5165;}
	.st19{fill-rule:evenodd;clip-rule:evenodd;fill:#4E637A;}
	.st20{fill-rule:evenodd;clip-rule:evenodd;fill:#C75454;}
</style>
<g>
	<rect x="0.5" y="0.5" class="st0" width="3000" height="2000"/>
	<g>
		<path class="st1" d="M2517.2,1686.3c0.7-70.7-6.2-144-21.6-219.2C2378.1,893.4,1817.9,428.4,1244.2,428.4
			c-573.7,0-943.5,465-826,1038.7c15.4,75.2,38.5,148.5,68.1,219.2H2517.2z"/>
		<path class="st0" d="M1451.8,590.7c230.5,0,458.8,75.1,657.1,202.2c-236.2-223.1-548.4-364.5-864.8-364.5
			c-573.7,0-943.5,465-826,1038.7c15.4,75.2,38.5,148.5,68.1,219.2H639c-4.9-18.8-9.3-37.8-13.2-56.8
			C508.3,1055.8,878.1,590.7,1451.8,590.7z"/>
		<rect x="1868.5" y="500.7" class="st2" width="123.3" height="1126.4"/>
		<path class="st0" d="M1223.9,837.7c-29,29-76.5,29-105.5,0l-59.5-59.5c-13.8,50.5-0.9,106.9,38.8,146.6
			c39.7,39.7,96,52.6,146.6,38.8l2,2c-5.5,2-10.2,5.8-13.3,10.6c-24.6-9.5-53.3-0.7-67.9,22.4l-87.4,137.5
			c-14.5,22.8-10.5,52.1,8,70.4l66.6,76.3c1.9,2.2,4,4.3,6.2,6.1c0,0.7,0,1.3,0,2c0,32.1,12.9,61.2,33.8,82.4l-4.3,19.9l-5.2-0.8
			c-9.4-1.3-18.7,5.1-20.8,14.4l-19.1,84.7c-2.1,9.3,3.9,17.9,13.2,19.3l6.3,0.9l-42.4,196.5h126.5l59.8-277.5
			c1.9,0.1,3.8,0.1,5.7,0.1c3,0,6-0.1,9-0.3v277.7h126.5v-203.3l4.2,0.1c9.6,0.3,17.6-7.3,17.9-16.9l2.4-84.7
			c0.3-9.6-7.4-17.6-16.9-17.9l-7.5-0.2v-90v-49.6v-0.1c6.9-1.3,13.4-3.8,19.1-7.2l34.5-17.9l36,36c29,29,76.5,29,105.5,0l0,0
			c29-29,29-76.5,0-105.5l-4.9-4.9c7.6-10.6,12-23.6,12-37.6c0-35.9-29.1-65-65-65c-14,0-27,4.4-37.6,12l-102.6-102.6
			c11.8-16.9,18.8-37.4,18.8-59.5v-47h35.5c6.9,0,12.5-5.6,12.5-12.5v0c0-6.9-5.6-12.5-12.5-12.5h-35.5v-43.5
			c0-37.7-30.9-68.6-68.6-68.6h-71c-4.7,0-9.3,0.5-13.8,1.4c-39.6-39-95.5-51.6-145.6-37.9l59.5,59.5
			C1253,761.2,1253,808.6,1223.9,837.7L1223.9,837.7z"/>
		<rect x="716.8" y="500.7" class="st3" width="123.3" height="1126.4"/>
		<path class="st4" d="M628,1293.5h295.3c30,0,54.5-24.5,54.5-54.6c0-30-24.5-54.6-54.5-54.6H628c-30,0-54.6,24.5-54.6,54.6
			C573.5,1269,598,1293.5,628,1293.5z"/>
		<path class="st5" d="M2550.1,549.8c30,0,54.6-24.5,54.6-54.6c0-30-24.5-54.6-54.6-54.6h-285.5c-30,0-54.6,24.5-54.6,54.6
			c0,30,24.5,54.6,54.6,54.6H2550.1z"/>
		<path class="st4" d="M2122.7,1102.6c15.1,0,27.3-12.2,27.3-27.3c0-15.1-12.2-27.3-27.3-27.3H1029c-15.1,0-27.3,12.2-27.3,27.3
			c0,15.1,12.2,27.3,27.3,27.3H2122.7z"/>
		<path class="st2" d="M949.1,766.7c-15.1,0-27.3,12.2-27.3,27.3v201.5c0,29.5,12.1,56.3,31.5,75.7c19.4,19.4,46.2,31.5,75.7,31.5
			c15.1,0,27.3-12.2,27.3-27.3c0-15.1-12.2-27.3-27.3-27.3c-14.5,0-27.6-5.9-37.2-15.5c-9.6-9.6-15.5-22.7-15.5-37.2V793.9
			C976.4,778.9,964.2,766.7,949.1,766.7z"/>
		<path class="st4" d="M2439.1,549.8c30,0,54.6-24.5,54.6-54.6c0-30-24.5-54.6-54.6-54.6h-501.9c-30,0-54.6,24.5-54.6,54.6
			c0,30,24.5,54.6,54.6,54.6H2439.1z"/>
		<path class="st4" d="M2035.4,1473.5c15.1,0,27.3-12.2,27.3-27.3s-12.2-27.3-27.3-27.3H1119c-15.1,0-27.3,12.2-27.3,27.3
			s12.2,27.3,27.3,27.3H2035.4z"/>
		<path class="st4" d="M551.7,480.7c-15.1,0-27.3,12.2-27.3,27.3v98.2c0,34.5,14.1,65.9,36.8,88.6c22.7,22.7,54.1,36.8,88.6,36.8
			h1658.3c34.5,0,65.9-14.1,88.6-36.8c22.7-22.7,36.8-54.1,36.8-88.6V508c0-15.1-12.2-27.3-27.3-27.3s-27.3,12.2-27.3,27.3v98.2
			c0,19.5-8,37.2-20.9,50.1c-12.9,12.9-30.6,20.9-50.1,20.9H649.8c-19.5,0-37.2-8-50.1-20.9c-12.9-12.9-20.9-30.6-20.9-50.1V508
			C578.9,492.9,566.7,480.7,551.7,480.7z"/>
		<path class="st6" d="M2403.2,701.3c24.4-24.4,39.5-58,39.5-95.1c0-20.1-16.3-36.4-36.4-36.4c-20.1,0-36.4,16.3-36.4,36.4
			c0,17-7,32.4-18.2,43.6c-11.2,11.2-26.7,18.2-43.6,18.2c-20.1,0-36.4,16.3-36.4,36.4c0,20.1,16.3,36.4,36.4,36.4
			C2345.2,740.8,2378.9,725.6,2403.2,701.3z"/>
		<path class="st2" d="M2093.2,1394.9c-14.8,14.8-35.3,24.1-57.8,24.1c-15.1,0-27.3,12.2-27.3,27.3s12.2,27.3,27.3,27.3
			c37.5,0,71.6-15.3,96.3-40c24.7-24.7,40-58.8,40-96.3V529.8c0-37.5-15.3-71.6-40-96.3c-24.7-24.7-58.8-40-96.3-40
			c-15.1,0-27.3,12.2-27.3,27.3s12.2,27.3,27.3,27.3c22.5,0,42.9,9.2,57.8,24.1c14.8,14.8,24.1,35.3,24.1,57.8v807.3
			C2117.2,1359.6,2108,1380.1,2093.2,1394.9z"/>
		<path class="st2" d="M2068.2,549.8c30,0,54.6-24.5,54.6-54.6c0-30-24.5-54.6-54.6-54.6H476.3c-30,0-54.6,24.5-54.6,54.6
			c0,30,24.5,54.6,54.6,54.6H2068.2z"/>
		<path class="st7" d="M2086.8,478.5c13.2,13.2,21.4,31.4,21.4,51.3c0,20.1,16.3,36.4,36.4,36.4c20.1,0,36.4-16.3,36.4-36.4
			c0-40-16.4-76.4-42.7-102.8c-26.3-26.3-62.7-42.7-102.8-42.7c-20.1,0-36.4,16.3-36.4,36.4c0,20.1,16.3,36.4,36.4,36.4
			C2055.4,457.1,2073.6,465.3,2086.8,478.5z"/>
		<path class="st7" d="M686.2,704.4c0-20.1-16.3-36.4-36.4-36.4c-17,0-32.4-7-43.6-18.2C595,638.6,588,623.2,588,606.2
			c0-20.1-16.3-36.4-36.4-36.4c-20.1,0-36.4,16.3-36.4,36.4c0,37,15.1,70.7,39.5,95.1c24.4,24.4,58,39.5,95.1,39.5
			C669.9,740.8,686.2,724.5,686.2,704.4z"/>
		<path class="st2" d="M1037.2,1667.2v-111.8c0-22.5,9.2-42.9,24.1-57.8c14.8-14.8,35.3-24.1,57.8-24.1c15.1,0,27.3-12.2,27.3-27.3
			S1134,1419,1119,1419c-37.5,0-71.6,15.3-96.3,40c-24.7,24.7-40,58.8-40,96.3v111.8c0,15.1,12.2,27.3,27.3,27.3
			S1037.2,1682.3,1037.2,1667.2z"/>
		<path class="st6" d="M1046.2,1555.4c0-20,8.2-38.1,21.4-51.3c13.2-13.2,31.4-21.4,51.3-21.4c20.1,0,36.4-16.3,36.4-36.4
			c0-20.1-16.3-36.4-36.4-36.4c-40,0-76.4,16.4-102.8,42.7c-26.3,26.3-42.7,62.7-42.7,102.8c0,20.1,16.3,36.4,36.4,36.4
			S1046.2,1575.4,1046.2,1555.4z"/>
		<path class="st7" d="M638.9,325.4L570.6,268v24.2h-51.8c-36.5,0-66.4,29.9-66.4,66.4v44.5c0-24.5,20-44.5,44.5-44.5h73.8v24.2
			L638.9,325.4z"/>
		<path class="st7" d="M529.8,878.9c12,0,21.8-9.8,21.8-21.8v0c0-12-9.8-21.8-21.8-21.8h-65.5c-12,0-21.8,9.8-21.8,21.8v0
			c0,12,9.8,21.8,21.8,21.8H529.8z"/>
		<path class="st7" d="M599.2,878.9c12,0,21.8-9.8,21.8-21.8v0c0-12-9.8-21.8-21.8-21.8h-10.9c-12,0-21.8,9.8-21.8,21.8v0
			c0,12,9.8,21.8,21.8,21.8H599.2z"/>
		<path class="st7" d="M2138.2,1439.9c26.3-26.3,42.7-62.7,42.7-102.8c0-20.1-16.3-36.4-36.4-36.4c-20.1,0-36.4,16.3-36.4,36.4
			c0,20-8.2,38.1-21.4,51.3c-13.2,13.2-31.4,21.4-51.3,21.4c-20.1,0-36.4,16.3-36.4,36.4c0,20.1,16.3,36.4,36.4,36.4
			C2075.5,1482.6,2111.8,1466.3,2138.2,1439.9z"/>
		<g>
			<path class="st8" d="M2168.7,1339.4l77.2-133.7h58.2c2.5,0,4.5-2,4.5-4.5c0-2.5-2-4.5-4.5-4.5h-63.4l-79.8,138.3
				c-1.2,2.2-0.5,4.9,1.7,6.2C2164.7,1342.3,2167.4,1341.6,2168.7,1339.4z"/>
			<path class="st9" d="M2453.1,1201.2c0-48.4-39.4-87.8-87.8-87.8c-48.4,0-87.8,39.4-87.8,87.8c0,48.4,39.4,87.8,87.8,87.8
				C2413.7,1289,2453.1,1249.5,2453.1,1201.2z"/>
			<path class="st8" d="M2328.4,1238.1c5.4,5.4,14.2,5.4,19.6,0l17.3-17.3l17.3,17.3c5.4,5.4,14.2,5.4,19.6,0
				c5.4-5.4,5.4-14.2,0-19.6l-17.3-17.3l17.3-17.3c5.4-5.4,5.4-14.2,0-19.6c-5.4-5.4-14.2-5.4-19.6,0l-17.3,17.3l-17.3-17.3
				c-5.4-5.4-14.2-5.4-19.6,0c-5.4,5.4-5.4,14.2,0,19.6l17.3,17.3l-17.3,17.3C2323,1223.9,2323,1232.7,2328.4,1238.1z"/>
		</g>
		<path class="st7" d="M1017.7,740.8c20.1,0,36.4-16.3,36.4-36.4c0-20.1-16.3-36.4-36.4-36.4H880.5c-20.1,0-36.4,16.3-36.4,36.4
			c0,20.1,16.3,36.4,36.4,36.4H1017.7z"/>
		<path class="st7" d="M985.5,793.9v-89.6c0-20.1-16.3-36.4-36.4-36.4c-20.1,0-36.4,16.3-36.4,36.4v89.6c0,20.1,16.3,36.4,36.4,36.4
			C969.2,830.3,985.5,814,985.5,793.9z"/>
		<g>
			<path class="st8" d="M711.6,747.2l79.8-138.3c1.2-2.2,0.5-4.9-1.7-6.2c-2.2-1.2-4.9-0.5-6.2,1.7l-77.2,133.7h-58.2
				c-2.5,0-4.5,2-4.5,4.5c0,2.5,2,4.5,4.5,4.5H711.6z"/>
			<path class="st10" d="M674.8,742.6c0-48.4-39.4-87.8-87.8-87.8c-48.4,0-87.8,39.4-87.8,87.8c0,48.4,39.4,87.8,87.8,87.8
				C635.3,830.4,674.8,791,674.8,742.6z"/>
			<path class="st8" d="M536.6,771.7c3,5.2,9.6,6.9,14.8,4l4.6-2.7c5.4,5.5,12.3,9.6,20.1,11.6v5.3c0,6,4.9,10.8,10.8,10.8
				c6,0,10.8-4.9,10.8-10.8v-5.3c7.7-2,14.7-6.1,20.1-11.6l4.6,2.7c5.2,3,11.8,1.2,14.8-4c3-5.2,1.2-11.8-4-14.8l-4.6-2.7
				c1-3.7,1.6-7.6,1.6-11.6c0-4-0.5-7.9-1.6-11.6l4.6-2.7c5.2-3,6.9-9.6,4-14.8c-3-5.2-9.6-6.9-14.8-4l-4.6,2.7
				c-5.4-5.5-12.3-9.6-20.1-11.6v-5.3c0-6-4.9-10.8-10.8-10.8c-6,0-10.8,4.9-10.8,10.8v5.3c-7.7,2-14.7,6.1-20.1,11.6l-4.6-2.7
				c-5.2-3-11.8-1.2-14.8,4c-3,5.2-1.2,11.8,4,14.8l4.6,2.7c-1,3.7-1.6,7.6-1.6,11.6c0,4,0.5,7.9,1.6,11.6l-4.6,2.7
				C535.4,759.9,533.6,766.6,536.6,771.7z M587,725.9c9.3,0,16.8,7.5,16.8,16.8c0,9.3-7.5,16.8-16.8,16.8c-9.3,0-16.8-7.5-16.8-16.8
				C570.2,733.4,577.7,725.9,587,725.9z"/>
		</g>
		<path class="st7" d="M824.4,1293.5c30,0,54.6-24.5,54.6-54.6c0-30-24.5-54.6-54.6-54.6h-97.5c-30,0-54.6,24.5-54.6,54.6
			c0,30,24.5,54.6,54.6,54.6H824.4z"/>
		<g>
			<path class="st8" d="M1023.7,1226.9v-116.3c0-2.5-2-4.5-4.5-4.5c-2.5,0-4.5,2-4.5,4.5v116.3c0,2.5,2,4.5,4.5,4.5
				C1021.7,1231.4,1023.7,1229.4,1023.7,1226.9z"/>
			<circle class="st11" cx="1019.2" cy="1270.2" r="87.8"/>
			<path class="st8" d="M1064,1265.3l-32.8-27.6v11.6h-24.9c-17.6,0-31.9,14.4-31.9,31.9v21.4c0-11.7,9.6-21.4,21.4-21.4h35.4v11.6
				L1064,1265.3z"/>
		</g>
		<path class="st6" d="M1065.4,1075.3c0-20.1-16.3-36.4-36.4-36.4c-11.9,0-22.8-4.9-30.7-12.8c-7.9-7.9-12.8-18.8-12.8-30.7
			c0-20.1-16.3-36.4-36.4-36.4c-20.1,0-36.4,16.3-36.4,36.4c0,32,13.1,61.1,34.1,82.2c21.1,21.1,50.1,34.1,82.2,34.1
			C1049.1,1111.7,1065.4,1095.4,1065.4,1075.3z"/>
		<g>
			<path class="st2" d="M996.6,582c35.7-35.7,57.8-85,57.8-139.5c0-54.5-22.1-103.8-57.8-139.5c-35.7-35.7-85-57.8-139.5-57.8
				c-54.5,0-103.8,22.1-139.5,57.8c-35.7,35.7-57.8,85-57.8,139.5c0,54.5,22.1,103.8,57.8,139.5c35.7,35.7,85,57.8,139.5,57.8
				C911.6,639.8,960.9,617.7,996.6,582z M705.3,442.5c0-41.9,17-79.9,44.5-107.4c27.5-27.5,65.4-44.5,107.4-44.5
				c41.9,0,79.9,17,107.4,44.5c27.5,27.5,44.5,65.4,44.5,107.4c0,41.9-17,79.9-44.5,107.4c-27.5,27.5-65.4,44.5-107.4,44.5
				c-41.9,0-79.9-17-107.4-44.5C722.3,522.4,705.3,484.5,705.3,442.5z"/>
			<path class="st2" d="M879.9,617.1V268c0-12.6-10.2-22.7-22.7-22.7c-12.6,0-22.7,10.2-22.7,22.7v349.1c0,12.6,10.2,22.7,22.7,22.7
				C869.7,639.8,879.9,629.7,879.9,617.1z"/>
			<path class="st2" d="M749.8,582l246.9-246.9c8.9-8.9,8.9-23.3,0-32.1c-8.9-8.9-23.3-8.9-32.1,0L717.6,549.9
				c-8.9,8.9-8.9,23.3,0,32.1C726.5,590.9,740.9,590.9,749.8,582z"/>
			<path class="st2" d="M1031.7,465.3c12.6,0,22.7-10.2,22.7-22.7c0-12.6-10.2-22.7-22.7-22.7H682.6c-12.6,0-22.7,10.2-22.7,22.7
				c0,12.6,10.2,22.7,22.7,22.7H1031.7z"/>
			<path class="st2" d="M996.6,582c8.9-8.9,8.9-23.3,0-32.1L749.8,303c-8.9-8.9-23.3-8.9-32.1,0c-8.9,8.9-8.9,23.3,0,32.1L964.5,582
				C973.4,590.9,987.8,590.9,996.6,582z"/>
			<path class="st4" d="M943.7,529.1c22.1-22.1,35.8-52.7,35.8-86.6h0.1c0-33.8-13.7-64.4-35.9-86.6c-22.2-22.2-52.8-35.9-86.6-35.9
				c-33.8,0-64.4,13.7-86.6,35.9c-22.2,22.2-35.9,52.8-35.9,86.6c0,33.8,13.7,64.4,35.9,86.6c22.1,22.1,52.7,35.8,86.6,35.8v0.1
				C890.9,565,921.5,551.3,943.7,529.1z M802.7,497c-13.9-13.9-22.5-33.2-22.5-54.4c0-21.3,8.6-40.5,22.5-54.4
				c13.9-13.9,33.2-22.5,54.4-22.5c21.3,0,40.5,8.6,54.4,22.5c13.9,13.9,22.5,33.2,22.5,54.4h0.1c0,21.2-8.7,40.4-22.6,54.4
				c-13.9,13.9-33.2,22.5-54.4,22.5v0.1C835.9,519.6,816.7,510.9,802.7,497z"/>
			<path class="st12" d="M857.1,290.7c9.4,0,18.5,0.8,27.1,2.4c8.9,1.6,17.7,4,26.2,7.2c11.7,4.4,24.8-1.6,29.1-13.3
				c4.4-11.7-1.6-24.8-13.3-29.1c-11-4.1-22.4-7.3-34.1-9.4c-11.9-2.2-23.6-3.2-35.1-3.2c-54.5,0-103.8,22.1-139.5,57.8
				c-35.7,35.7-57.8,85-57.8,139.5c0,54.5,22.1,103.8,57.8,139.5c35.7,35.7,85,57.8,139.5,57.8c12.6,0,22.7-10.2,22.7-22.7
				c0-12.6-10.2-22.7-22.7-22.7c-41.9,0-79.9-17-107.4-44.5c-27.5-27.5-44.5-65.4-44.5-107.4c0-41.9,17-79.9,44.5-107.4
				C777.2,307.7,815.2,290.7,857.1,290.7z"/>
			<path class="st7" d="M708.8,409.6c7.7-34.7,27-64.4,53.3-85.5c26.2-21,59.4-33.3,95-33.3c9.4,0,18.5,0.8,27.1,2.4
				c8.9,1.6,17.7,4,26.2,7.2c11.7,4.4,24.8-1.6,29.1-13.3c4.4-11.7-1.6-24.8-13.3-29.1c-11-4.1-22.4-7.3-34.1-9.4
				c-11.9-2.2-23.6-3.2-35.1-3.2c-46.2,0-89.3,16.1-123.4,43.5c-34,27.3-59,65.9-69.1,111.1c-2.7,12.2,5,24.3,17.2,27
				C694.1,429.5,706.1,421.8,708.8,409.6z"/>
		</g>
		<path class="st2" d="M2533.4,1755.7c26.6,0,48.3-21.8,48.3-48.3v-43.3c0-26.6-21.8-48.3-48.3-48.3H470.1
			c-26.6,0-48.3,21.8-48.3,48.3v43.3c0,26.6,21.8,48.3,48.3,48.3H2533.4z"/>
		<path class="st13" d="M2533.4,1755.7c26.6,0,48.3-21.8,48.3-48.3v-43.3c0-26.6-21.8-48.3-48.3-48.3h-983.3
			c-26.6,0-48.3,21.8-48.3,48.3v43.3c0,26.6,21.8,48.3,48.3,48.3H2533.4z"/>
		<path class="st4" d="M2533.4,1755.7c26.6,0,48.3-21.8,48.3-48.3v-43.3c0-26.6-21.8-48.3-48.3-48.3h-493.3
			c-26.6,0-48.3,21.8-48.3,48.3v43.3c0,26.6,21.8,48.3,48.3,48.3H2533.4z"/>
		<path class="st7" d="M2295.1,838.4l68.3,57.4v-24.2h51.8c36.5,0,66.4-29.9,66.4-66.4v-44.5c0,24.5-20,44.5-44.5,44.5h-73.8V781
			L2295.1,838.4z"/>
		<path class="st8" d="M2303,1571.1c6.1,10.7,19.9,14.3,30.5,8.2l9.6-5.5c11.2,11.4,25.5,19.8,41.5,24v11
			c0,12.3,10.1,22.4,22.4,22.4c12.3,0,22.4-10.1,22.4-22.4v-11c16-4.1,30.2-12.5,41.5-24l9.6,5.5c10.7,6.1,24.4,2.5,30.5-8.2
			c6.1-10.7,2.5-24.4-8.2-30.5l-9.6-5.5c2.1-7.6,3.2-15.6,3.2-23.9c0-8.3-1.1-16.3-3.2-23.9l9.6-5.5c10.6-6.1,14.3-19.9,8.2-30.5
			c-6.2-10.6-19.9-14.3-30.5-8.2l-9.6,5.5c-11.2-11.4-25.5-19.8-41.5-24v-11c0-12.3-10.1-22.4-22.4-22.4
			c-12.3,0-22.4,10.1-22.4,22.4v11c-16,4.1-30.2,12.5-41.5,24l-9.6-5.5c-10.7-6.1-24.4-2.5-30.5,8.2c-6.1,10.7-2.5,24.4,8.2,30.5
			l9.6,5.5c-2.1,7.6-3.2,15.7-3.2,23.9c0,8.3,1.1,16.3,3.2,23.9l-9.6,5.5C2300.5,1546.7,2296.8,1560.4,2303,1571.1z M2406.9,1476.5
			c19.1,0,34.6,15.5,34.6,34.6c0,19.1-15.5,34.6-34.6,34.6c-19.1,0-34.6-15.5-34.6-34.6C2372.3,1492,2387.8,1476.5,2406.9,1476.5z"
			/>
		<g>
			<path class="st14" d="M1712.3,976.3l165-85.6c30.6-15.8,42.6-53.4,26.9-84s-53.4-42.6-84-26.9l-165,85.6
				c-30.6,15.8-42.6,53.4-26.9,84C1644.1,980,1681.7,992.1,1712.3,976.3z"/>
			<path class="st15" d="M1426.1,495.5c-35,35-92.4,35-127.4,0l-71.9-71.9c-16.7,61-1.1,129,46.9,176.9
				c47.9,47.9,115.9,63.5,176.9,46.9l353.6,353.6c35,35,92.4,35,127.4,0l0,0c35-35,35-92.4,0-127.4L1578,520
				c16.7-61,1.1-129-46.9-176.9c-47.9-47.9-115.9-63.5-176.9-46.9l71.9,71.9C1461.1,403.2,1461.1,460.5,1426.1,495.5L1426.1,495.5z"
				/>
			<path class="st16" d="M1853.9,923.3L1853.9,923.3c17.6-17.6,17.6-46.4,0-64.1l-272.7-272.7c-17.6-17.6-46.5-17.6-64.1,0l0,0
				c-17.6,17.6-17.6,46.5,0,64.1l272.7,272.7C1807.4,940.9,1836.2,940.9,1853.9,923.3z"/>
			<rect x="1543.3" y="988" class="st13" width="152.7" height="632.8"/>
			<path class="st13" d="M1701.1,1342.8c11.6,0.4,21.2-8.8,21.5-20.4l3-121.5c0.3-11.6-8.9-21.3-20.5-21.7l-36.9-1.2
				c-11.6-0.4-21.2,8.8-21.5,20.4l-3,121.5c-0.3,11.6,8.9,21.3,20.5,21.7L1701.1,1342.8z"/>
			<path class="st8" d="M1691.3,982.9c34.2-4.2,58.6-35.3,54.4-69.6L1724,738.7c-4.2-34.2-35.3-58.6-69.6-54.4
				c-34.2,4.2-58.6,35.3-54.4,69.6l21.8,174.6C1625.9,962.7,1657.1,987,1691.3,982.9z"/>
			<polygon class="st2" points="1573.7,988 1420.9,988 1300.6,1620.8 1453.3,1620.8 			"/>
			<path class="st2" d="M1532.4,1211.5c90,0,163.7-73.6,163.7-163.6V895.1c0-90-73.6-163.7-163.7-163.7
				c-90,0-163.7,73.6-163.7,163.7v152.7C1368.8,1137.9,1442.4,1211.5,1532.4,1211.5z"/>
			<path class="st2" d="M1630.6,1042.6c0-78.1-63.7-141.8-141.8-141.8c-78.1,0-141.8,63.7-141.8,141.8
				c0,78.1,63.7,141.8,141.8,141.8C1566.9,1184.4,1630.6,1120.7,1630.6,1042.6z"/>
			<path class="st8" d="M1532.4,1124.2c89,0,161.9-72.8,161.9-161.9V806.1c0-89-72.8-161.9-161.9-161.9
				c-89,0-161.9,72.8-161.9,161.9v156.3C1370.6,1051.4,1443.4,1124.2,1532.4,1124.2z"/>
			<path class="st2" d="M1676,855.1V680.6c0-18-14.7-32.7-32.7-32.7c-18,0-32.7,14.7-32.7,32.7v174.6c0,18,14.7,32.7,32.7,32.7
				C1661.2,887.9,1676,873.1,1676,855.1z"/>
			<path class="st17" d="M1550.8,746.5c47.9,0,87-39.2,87-87V524.1c0-47.9-39.2-87-87-87h0c-47.9,0-87,39.2-87,87v135.4
				C1463.8,707.3,1502.9,746.5,1550.8,746.5L1550.8,746.5z"/>
			<path class="st17" d="M1715.2,562.7v-77.4c0-69.1-56.6-125.7-125.7-125.7c-69.1,0-125.7,56.6-125.7,125.7v77.4
				c0,69.1,56.6,125.7,125.7,125.7C1658.7,688.5,1715.2,631.9,1715.2,562.7z"/>
			<path class="st14" d="M1715.2,562.7v-77.4c0-55.7-36.7-103.2-87-119.6c-50.4,16.4-87,63.9-87,119.6v77.4
				c0,55.7,36.7,103.2,87,119.6C1678.6,665.9,1715.2,618.4,1715.2,562.7z"/>
			<path class="st2" d="M1532.4,1140.8c90,0,163.7-73.6,163.7-163.7v-94.3c0-42.9-35.1-78.1-78.1-78.1h-171.1
				c-42.9,0-78.1,35.1-78.1,78.1v94.3C1368.8,1067.1,1442.4,1140.8,1532.4,1140.8z"/>
			<path class="st18" d="M1582.9,994c28,0,50.9-22.9,50.9-50.9v-33.8c0-9.4-7.7-17-17-17h-89.8c-9.4,0-17,7.7-17,17v33.8
				c0,28,22.9,50.9,50.9,50.9H1582.9z"/>
			<path class="st15" d="M1663.3,837.9c8.9,0,16.2-7.3,16.2-16.2v-15.3c0-8.9-7.3-16.2-16.2-16.2h-40.2c-8.9,0-16.2,7.3-16.2,16.2
				v15.3c0,8.9,7.3,16.2,16.2,16.2H1663.3z"/>
			<path class="st2" d="M1380.2,1356.6c11.3,1.8,22.4-5.9,24.6-17.1l24-121.1c2.2-11.3-5.2-22-16.5-23.8l-36.1-5.9
				c-11.3-1.8-22.4,5.9-24.6,17.1l-24,121.1c-2.2,11.2,5.2,22,16.5,23.8L1380.2,1356.6z"/>
			<path class="st2" d="M1559.6,510.4v-66h-71.7v101.8h35.9C1543.5,546.3,1559.6,530.1,1559.6,510.4z"/>
			<path class="st2" d="M1715.2,423.2c0-45.6-37.3-82.8-82.8-82.8h-85.7c-45.6,0-82.8,37.3-82.8,82.8V506h251.4V423.2z"/>
			<path class="st18" d="M1715.2,423.2c0-45.6-37.3-82.8-82.8-82.8h-27.7c-45.6,0-82.8,37.3-82.8,82.8V506h193.4V423.2z"/>
			<path class="st6" d="M1758.1,506c8.3,0,15.2-6.8,15.2-15.2v0c0-8.3-6.8-15.1-15.2-15.1h-238c-8.3,0-15.2,6.8-15.2,15.1v0
				c0,8.3,6.8,15.2,15.2,15.2H1758.1z"/>
			<path class="st9" d="M1683.5,450.3c3.7,0,6.8-3.1,6.8-6.8v-32.2c0-3.7-3.1-6.8-6.8-6.8h-85.9c-3.7,0-6.8,3.1-6.8,6.8v32.2
				c0,3.7,3.1,6.8,6.8,6.8H1683.5z"/>
			<path class="st17" d="M1508.4,530.6c0-20.3-16.6-36.9-36.9-36.9c-20.3,0-36.9,16.6-36.9,36.9c0,20.3,16.6,36.9,36.9,36.9
				C1491.8,567.5,1508.4,550.9,1508.4,530.6z"/>
			<path class="st8" d="M1593.3,627.1h40.3c7.6,0,13.8-6.2,13.8-13.8v-13.8h-54.1c3.7,3.5,6,8.4,6,13.8v0
				C1599.3,618.7,1597,623.7,1593.3,627.1z"/>
			<path class="st8" d="M1359.7,925.7l105.5-166c18.5-29.1,9.8-67.7-19.3-86.2c-29.1-18.5-67.7-9.8-86.2,19.3l-105.5,166
				c-18.5,29.1-9.8,67.7,19.3,86.2C1302.6,963.4,1341.2,954.8,1359.7,925.7z"/>
			<path class="st2" d="M1497,855.1V680.6c0-18-14.7-32.7-32.7-32.7c-18,0-32.7,14.7-32.7,32.7v174.6c0,18,14.7,32.7,32.7,32.7
				C1482.2,887.9,1497,873.1,1497,855.1z"/>
			<path class="st15" d="M1484.3,837.9c8.9,0,16.2-7.3,16.2-16.2v-15.3c0-8.9-7.3-16.2-16.2-16.2h-40.2c-8.9,0-16.2,7.3-16.2,16.2
				v15.3c0,8.9,7.3,16.2,16.2,16.2H1484.3z"/>
			<path class="st14" d="M1940.2,822.3c0-43.2-35.2-78.4-78.4-78.4c-43.2,0-78.4,35.2-78.4,78.4c0,43.2,35.2,78.4,78.4,78.4
				C1905,900.8,1940.2,865.5,1940.2,822.3z"/>
			<path class="st18" d="M1689.1,1072.2c7.2,0,13.1-5.9,13.1-13.1v-25c0-7.2-5.9-13.1-13.1-13.1h-250c-7.2,0-13.1,5.9-13.1,13.1v25
				c0,7.2,5.9,13.1,13.1,13.1H1689.1z"/>
			<path class="st19" d="M1449.8,1133.7c34.1,0,61.9-27.9,61.9-61.9V1036c0-14.4-11.8-26.1-26.1-26.1h-144.9
				c-14.4,0-26.1,11.8-26.1,26.1v43.6c0,29.7,24.3,54.1,54.1,54.1H1449.8z"/>
			<path class="st13" d="M1600.1,1073.4c9,0,16.3-7.3,16.3-16.3v-21.4c0-9-7.3-16.3-16.3-16.3H1548c-9,0-16.3,7.3-16.3,16.3v21.4
				c0,9,7.3,16.3,16.3,16.3H1600.1z"/>
			<path class="st0" d="M1903.9,946.7c0-19.5-15.9-35.4-35.4-35.4s-35.4,15.9-35.4,35.4c0,19.5,15.9,35.4,35.4,35.4
				S1903.9,966.2,1903.9,946.7z"/>
			<path class="st20" d="M1522.4,1044.2c0-14.5-5.9-27.6-15.4-37.1c-9.5-9.5-22.6-15.4-37.1-15.4h-54.7c-14.5,0-27.6,5.9-37.1,15.4
				c-9.5,9.5-15.4,22.6-15.4,37.1v95.7h159.7V1044.2z M1486,1103.6h-87v-59.4c0-4.4,1.8-8.5,4.8-11.4c2.9-2.9,7-4.8,11.4-4.8h54.7
				c4.4,0,8.5,1.8,11.4,4.8c2.9,2.9,4.8,7,4.8,11.4V1103.6z"/>
			<path class="st9" d="M1574.6,1295.5c20.9,0,38-17.1,38-38v-131.7c0-20.9-17.1-38-38-38H1296c-20.9,0-38,17.1-38,38v131.7
				c0,20.9,17.1,38,38,38H1574.6z"/>
			<path class="st20" d="M1574.6,1295.5c20.9,0,38-17.1,38-38v-131.6c0-20.9-17.1-38-38-38h-50.1c-20.9,0-38,17.1-38,38v131.6
				c0,20.9,17.1,38,38,38H1574.6z"/>
			<rect x="1258.9" y="1161.6" class="st20" width="352.9" height="15.3"/>
			<path class="st15" d="M1317.3,1184.4c4.8,0,8.7-3.9,8.7-8.7v-16.3c0-4.8-3.9-8.7-8.7-8.7h-36.9c-4.8,0-8.7,3.9-8.7,8.7v16.3
				c0,4.8,3.9,8.7,8.7,8.7H1317.3z"/>
			<path class="st15" d="M1425.2,1184.4c4.8,0,8.7-3.9,8.7-8.7v-16.3c0-4.8-3.9-8.7-8.7-8.7h-36.9c-4.8,0-8.7,3.9-8.7,8.7v16.3
				c0,4.8,3.9,8.7,8.7,8.7H1425.2z"/>
			<path class="st17" d="M1431.6,1034.9c25.9-22.7,28.5-62,5.9-87.9l-83.6-95.8c-22.7-25.9-62-28.5-87.9-5.9
				c-25.9,22.7-28.5,62-5.9,87.9l83.6,95.8C1366.4,1054.9,1405.7,1057.6,1431.6,1034.9z"/>
			<path class="st14" d="M1489.4,991.6c0-43.2-35.2-78.4-78.4-78.4c-43.2,0-78.4,35.2-78.4,78.4c0,43.2,35.2,78.4,78.4,78.4
				C1454.1,1070,1489.4,1034.8,1489.4,991.6z"/>
		</g>
	</g>
</g>
</svg>
